<?xml version="1.0" encoding="utf-8"?>
<!-- Generator: Adobe Illustrator 21.0.0, SVG Export Plug-In . SVG Version: 6.00 Build 0)  -->
<svg version="1.1" id="Layer_1" xmlns="http://www.w3.org/2000/svg" xmlns:xlink="http://www.w3.org/1999/xlink" x="0px" y="0px"
	 viewBox="0 0 500 150" style="enable-background:new 0 0 500 150;" xml:space="preserve">
<path fill="none" stroke="#000" d="M45.6,82.1c-0.1,2.7-0.7,5.1-1.7,7.3c-1,2.2-2.5,4.1-4.3,5.7s-4,2.8-6.6,3.7c-2.6,0.9-5.4,1.3-8.6,1.3
	c-3.4,0-6.5-0.6-9.2-1.7c-2.7-1.1-5-2.8-6.8-4.9s-3.3-4.8-4.3-7.8c-1-3.1-1.5-6.5-1.5-10.4v-2.8c0-3.8,0.5-7.3,1.5-10.4
	c1-3.1,2.5-5.7,4.4-7.9c1.9-2.2,4.2-3.8,6.8-5c2.6-1.2,5.6-1.7,8.9-1.7c3.3,0,6.3,0.5,8.8,1.4c2.6,0.9,4.7,2.2,6.5,3.8
	c1.8,1.6,3.2,3.6,4.2,5.8c1,2.3,1.6,4.7,1.9,7.3H33.4c0-1.4-0.2-2.7-0.6-3.8c-0.3-1.1-0.9-2-1.6-2.7c-0.7-0.7-1.7-1.3-2.8-1.7
	c-1.1-0.4-2.5-0.6-4.1-0.6c-1.5,0-2.8,0.3-4,0.8s-2.1,1.5-2.8,2.7c-0.8,1.2-1.3,2.8-1.7,4.7c-0.4,1.9-0.5,4.3-0.5,7v2.8
	c0,2.7,0.2,5,0.5,7c0.3,1.9,0.8,3.5,1.6,4.7c0.7,1.2,1.7,2.1,2.8,2.7s2.6,0.8,4.3,0.8c2.8,0,5-0.7,6.5-2c1.5-1.3,2.3-3.5,2.4-6.4
	H45.6z"/>
<path fill="none" stroke="#000" d="M49.4,80c0-2.8,0.4-5.3,1.2-7.7c0.8-2.4,2-4.4,3.5-6.2c1.5-1.7,3.5-3.1,5.7-4.1c2.3-1,4.9-1.5,7.9-1.5c3,0,5.6,0.5,7.9,1.5
	c2.3,1,4.2,2.3,5.7,4.1c1.5,1.7,2.7,3.8,3.5,6.2c0.8,2.4,1.2,4.9,1.2,7.7v0.7c0,2.8-0.4,5.4-1.2,7.7c-0.8,2.4-2,4.4-3.5,6.1
	s-3.5,3.1-5.7,4c-2.3,1-4.9,1.5-7.9,1.5c-3,0-5.6-0.5-7.9-1.5c-2.3-1-4.2-2.3-5.8-4c-1.6-1.7-2.7-3.8-3.5-6.1
	c-0.8-2.4-1.2-4.9-1.2-7.7V80z M61.2,80.8c0,1.4,0.1,2.8,0.3,4c0.2,1.2,0.6,2.3,1.1,3.2c0.5,0.9,1.2,1.6,2,2.2s1.9,0.8,3.2,0.8
	c1.2,0,2.3-0.3,3.1-0.8c0.8-0.5,1.5-1.2,2-2.2s0.8-2,1.1-3.2s0.3-2.6,0.3-4V80c0-1.4-0.1-2.7-0.3-3.9c-0.2-1.2-0.6-2.3-1.1-3.3
	c-0.5-0.9-1.2-1.7-2-2.2c-0.8-0.6-1.9-0.8-3.2-0.8c-1.2,0-2.3,0.3-3.1,0.8c-0.8,0.6-1.5,1.3-2,2.2c-0.5,0.9-0.8,2-1.1,3.3
	s-0.3,2.6-0.3,3.9V80.8z"/>
<path fill="none" stroke="#000" d="M102.5,61.4l0.4,4.5c1.3-1.6,2.8-2.9,4.6-3.8s3.9-1.4,6.3-1.4c2.2,0,4.2,0.5,5.9,1.4c1.7,0.9,3,2.4,3.9,4.4
	c1.2-1.8,2.8-3.2,4.6-4.2c1.9-1,4-1.5,6.6-1.5c1.7,0,3.3,0.3,4.8,0.8c1.5,0.5,2.7,1.3,3.8,2.5s1.9,2.7,2.5,4.6
	c0.6,1.9,0.9,4.2,0.9,7v23.9h-11.9V75.5c0-1.2-0.1-2.1-0.3-2.9s-0.5-1.3-0.9-1.7c-0.4-0.4-0.9-0.7-1.4-0.8c-0.6-0.2-1.2-0.2-1.9-0.2
	c-1.2,0-2.3,0.3-3.1,0.8c-0.9,0.6-1.6,1.3-2.1,2.3c0,0.2,0,0.4,0,0.5s0,0.4,0,0.5v25.4H113V75.5c0-1.2-0.1-2.2-0.3-2.9
	c-0.2-0.8-0.5-1.3-0.9-1.8s-0.9-0.7-1.4-0.8c-0.6-0.1-1.2-0.2-2-0.2c-1.1,0-2.2,0.3-3,0.8c-0.9,0.6-1.6,1.3-2.2,2.3v26.5H91.4v-38
	H102.5z"/>
<path fill="none" stroke="#000" d="M153.2,51.6c0-0.8,0.2-1.6,0.5-2.3s0.8-1.3,1.4-1.8c0.6-0.5,1.3-0.9,2.1-1.2c0.8-0.3,1.7-0.4,2.7-0.4s1.9,0.1,2.7,0.4
	c0.8,0.3,1.5,0.7,2.1,1.2c0.6,0.5,1,1.1,1.4,1.8s0.5,1.5,0.5,2.3s-0.2,1.6-0.5,2.3s-0.8,1.3-1.4,1.8c-0.6,0.5-1.3,0.9-2.1,1.2
	c-0.8,0.3-1.7,0.4-2.7,0.4s-1.9-0.1-2.7-0.4c-0.8-0.3-1.5-0.7-2.1-1.2c-0.6-0.5-1-1.1-1.4-1.8S153.2,52.4,153.2,51.6z M165.8,99.4
	h-11.9v-38h11.9V99.4z"/>
<path fill="none" stroke="#000" d="M184,61.4l0.4,4.5c1.3-1.7,2.9-3,4.7-3.8c1.8-0.9,3.9-1.3,6.2-1.3c1.8,0,3.4,0.3,4.8,0.8c1.5,0.5,2.7,1.3,3.8,2.5
	s1.9,2.7,2.4,4.6c0.6,1.9,0.9,4.2,0.9,7v23.9h-11.9v-24c0-1.1-0.1-2.1-0.4-2.8c-0.2-0.7-0.6-1.3-1.1-1.7s-1-0.7-1.7-0.9
	c-0.7-0.2-1.4-0.2-2.3-0.2c-1.3,0-2.3,0.2-3.1,0.7c-0.8,0.5-1.5,1.2-2,2v26.9h-11.8v-38H184z"/>
<path fill="none" stroke="#000" d="M212.3,80.1c0-2.9,0.4-5.5,1.1-7.9c0.7-2.4,1.7-4.4,3.1-6.2c1.3-1.7,3-3,4.9-4c1.9-0.9,4.1-1.4,6.5-1.4c2.2,0,4,0.4,5.5,1.1
	s2.8,1.7,3.8,3l0.4-3.3h10.8v36.6c0,2.6-0.5,5-1.4,7s-2.3,3.8-4,5.2c-1.7,1.4-3.7,2.5-6.1,3.2c-2.4,0.7-5,1.1-7.9,1.1
	c-1.3,0-2.6-0.1-3.9-0.4c-1.3-0.2-2.6-0.6-3.9-1.1c-1.2-0.5-2.4-1.1-3.5-1.8s-2-1.5-2.8-2.5l5-7c0.9,1.1,2.1,2,3.6,2.8
	c1.5,0.8,3.2,1.1,5.1,1.1c2.6,0,4.5-0.7,5.9-2c1.3-1.3,2-3.3,2-5.7v-1.5c-1.1,1.2-2.3,2.1-3.7,2.8c-1.4,0.7-3,1-4.9,1
	c-2.4,0-4.6-0.5-6.5-1.5c-1.9-1-3.6-2.3-4.9-4s-2.4-3.7-3.1-6.1c-0.7-2.4-1.1-4.9-1.1-7.7V80.1z M224.2,80.8c0,1.4,0.1,2.8,0.4,4
	s0.7,2.3,1.2,3.2s1.2,1.6,2.1,2.1s1.8,0.8,3,0.8c1.3,0,2.5-0.2,3.4-0.7s1.7-1.1,2.2-1.9v-16c-0.6-0.8-1.3-1.5-2.2-1.9
	c-0.9-0.4-2-0.7-3.3-0.7c-1.1,0-2.1,0.3-2.9,0.8c-0.8,0.5-1.5,1.2-2.1,2.2c-0.6,0.9-1,2-1.3,3.3c-0.3,1.3-0.4,2.6-0.4,4.1V80.8z"/>
<path fill="none" stroke="#000" d="M300,85.8c0-0.8-0.1-1.5-0.3-2.2s-0.7-1.3-1.3-1.8s-1.6-1.1-2.8-1.7s-2.7-1.2-4.7-1.8c-2.3-0.8-4.4-1.6-6.5-2.5
	c-2.1-0.9-3.9-2.1-5.6-3.3c-1.6-1.3-2.9-2.8-3.9-4.5s-1.5-3.7-1.5-6c0-2.2,0.5-4.2,1.5-6c1-1.8,2.4-3.3,4.1-4.5
	c1.8-1.2,3.8-2.2,6.2-2.9c2.4-0.7,5-1,7.9-1c2.8,0,5.4,0.4,7.7,1.1c2.3,0.8,4.4,1.8,6,3.2c1.7,1.4,3,3.1,4,5c0.9,2,1.4,4.1,1.4,6.6
	H300c0-1-0.1-1.8-0.4-2.7s-0.7-1.5-1.3-2.1c-0.6-0.6-1.3-1-2.2-1.4c-0.9-0.3-1.9-0.5-3.1-0.5c-1.2,0-2.2,0.1-3.1,0.4
	c-0.9,0.3-1.6,0.6-2.2,1.1c-0.6,0.5-1,1-1.4,1.7c-0.3,0.6-0.5,1.3-0.5,2c0,0.8,0.2,1.5,0.7,2.1c0.4,0.6,1.1,1.2,1.9,1.8
	c0.8,0.6,1.8,1.1,3,1.5c1.2,0.5,2.5,1,3.9,1.4c2.7,0.9,5.1,1.8,7.3,2.9s3.9,2.3,5.4,3.6c1.5,1.4,2.6,2.9,3.3,4.6s1.1,3.6,1.1,5.8
	c0,2.3-0.5,4.3-1.4,6.1s-2.2,3.3-3.8,4.5s-3.6,2.1-6,2.8s-4.9,0.9-7.8,0.9c-1.8,0-3.5-0.1-5.2-0.4s-3.4-0.7-5-1.4s-3.1-1.4-4.4-2.3
	s-2.6-2-3.6-3.3s-1.8-2.8-2.4-4.4s-0.9-3.5-0.9-5.5h12.4c0,1.5,0.2,2.8,0.6,3.8s1,1.8,1.8,2.5s1.7,1.1,2.8,1.4s2.4,0.4,3.8,0.4
	c1.2,0,2.2-0.1,3-0.4s1.5-0.6,2.1-1.1s0.9-1,1.2-1.6S300,86.5,300,85.8z"/>
<path fill="none" stroke="#000" d="M316.6,80c0-2.8,0.4-5.3,1.2-7.7c0.8-2.4,2-4.4,3.5-6.2c1.5-1.7,3.5-3.1,5.7-4.1c2.3-1,4.9-1.5,7.9-1.5c3,0,5.6,0.5,7.9,1.5
	c2.3,1,4.2,2.3,5.7,4.1c1.5,1.7,2.7,3.8,3.5,6.2c0.8,2.4,1.2,4.9,1.2,7.7v0.7c0,2.8-0.4,5.4-1.2,7.7s-2,4.4-3.5,6.1s-3.5,3.1-5.7,4
	c-2.3,1-4.9,1.5-7.9,1.5s-5.6-0.5-7.9-1.5c-2.3-1-4.2-2.3-5.8-4s-2.7-3.8-3.5-6.1s-1.2-4.9-1.2-7.7V80z M328.5,80.8
	c0,1.4,0.1,2.8,0.3,4s0.6,2.3,1.1,3.2s1.2,1.6,2,2.2s1.9,0.8,3.2,0.8c1.2,0,2.3-0.3,3.1-0.8s1.5-1.2,2-2.2s0.8-2,1.1-3.2
	s0.3-2.6,0.3-4V80c0-1.4-0.1-2.7-0.3-3.9s-0.6-2.3-1.1-3.3c-0.5-0.9-1.2-1.7-2-2.2c-0.8-0.6-1.9-0.8-3.2-0.8c-1.2,0-2.3,0.3-3.1,0.8
	c-0.8,0.6-1.5,1.3-2,2.2c-0.5,0.9-0.8,2-1.1,3.3s-0.3,2.6-0.3,3.9V80.8z"/>
<path fill="none" stroke="#000" d="M357.1,80c0-2.8,0.4-5.3,1.2-7.7c0.8-2.4,2-4.4,3.5-6.2c1.5-1.7,3.5-3.1,5.7-4.1c2.3-1,4.9-1.5,7.9-1.5c3,0,5.6,0.5,7.9,1.5
	c2.3,1,4.2,2.3,5.7,4.1c1.5,1.7,2.7,3.8,3.5,6.2c0.8,2.4,1.2,4.9,1.2,7.7v0.7c0,2.8-0.4,5.4-1.2,7.7s-2,4.4-3.5,6.1s-3.5,3.1-5.7,4
	c-2.3,1-4.9,1.5-7.9,1.5s-5.6-0.5-7.9-1.5c-2.3-1-4.2-2.3-5.8-4s-2.7-3.8-3.5-6.1s-1.2-4.9-1.2-7.7V80z M368.9,80.8
	c0,1.4,0.1,2.8,0.3,4s0.6,2.3,1.1,3.2s1.2,1.6,2,2.2s1.9,0.8,3.2,0.8c1.2,0,2.3-0.3,3.1-0.8s1.5-1.2,2-2.2s0.8-2,1.1-3.2
	s0.3-2.6,0.3-4V80c0-1.4-0.1-2.7-0.3-3.9s-0.6-2.3-1.1-3.3c-0.5-0.9-1.2-1.7-2-2.2c-0.8-0.6-1.9-0.8-3.2-0.8c-1.2,0-2.3,0.3-3.1,0.8
	c-0.8,0.6-1.5,1.3-2,2.2c-0.5,0.9-0.8,2-1.1,3.3s-0.3,2.6-0.3,3.9V80.8z"/>
<path fill="none" stroke="#000" d="M409.9,61.4l0.4,4.5c1.3-1.7,2.9-3,4.7-3.8s3.9-1.3,6.2-1.3c1.8,0,3.4,0.3,4.8,0.8c1.5,0.5,2.7,1.3,3.8,2.5s1.9,2.7,2.4,4.6
	c0.6,1.9,0.9,4.2,0.9,7v23.9h-11.9v-24c0-1.1-0.1-2.1-0.4-2.8c-0.2-0.7-0.6-1.3-1.1-1.7s-1-0.7-1.7-0.9c-0.7-0.2-1.4-0.2-2.3-0.2
	c-1.3,0-2.3,0.2-3.1,0.7s-1.5,1.2-2,2v26.9h-11.8v-38H409.9z"/>
<path fill="none" stroke="#000" d="M440.4,93.9c0-0.8,0.2-1.6,0.5-2.4s0.8-1.4,1.3-1.9s1.3-0.9,2.1-1.2s1.7-0.5,2.7-0.5c1,0,1.8,0.2,2.7,0.5s1.5,0.7,2.1,1.2
	s1,1.2,1.3,1.9s0.5,1.5,0.5,2.4s-0.2,1.6-0.5,2.4s-0.8,1.4-1.3,1.9s-1.3,0.9-2.1,1.2c-0.8,0.3-1.7,0.5-2.7,0.5c-1,0-1.9-0.2-2.7-0.5
	c-0.8-0.3-1.5-0.7-2.1-1.2s-1-1.2-1.3-1.9S440.4,94.7,440.4,93.9z"/>
<path fill="none" stroke="#000" d="M462.1,93.9c0-0.8,0.2-1.6,0.5-2.4s0.8-1.4,1.3-1.9s1.3-0.9,2.1-1.2s1.7-0.5,2.7-0.5c1,0,1.8,0.2,2.7,0.5s1.5,0.7,2.1,1.2
	s1,1.2,1.3,1.9s0.5,1.5,0.5,2.4s-0.2,1.6-0.5,2.4s-0.8,1.4-1.3,1.9s-1.3,0.9-2.1,1.2c-0.8,0.3-1.7,0.5-2.7,0.5c-1,0-1.9-0.2-2.7-0.5
	c-0.8-0.3-1.5-0.7-2.1-1.2s-1-1.2-1.3-1.9S462.1,94.7,462.1,93.9z"/>
<path fill="none" stroke="#000" d="M483.9,93.9c0-0.8,0.2-1.6,0.5-2.4s0.8-1.4,1.3-1.9s1.3-0.9,2.1-1.2s1.7-0.5,2.7-0.5c1,0,1.8,0.2,2.7,0.5s1.5,0.7,2.1,1.2
	s1,1.2,1.3,1.9s0.5,1.5,0.5,2.4s-0.2,1.6-0.5,2.4s-0.8,1.4-1.3,1.9s-1.3,0.9-2.1,1.2c-0.8,0.3-1.7,0.5-2.7,0.5c-1,0-1.9-0.2-2.7-0.5
	c-0.8-0.3-1.5-0.7-2.1-1.2s-1-1.2-1.3-1.9S483.9,94.7,483.9,93.9z"/>
</svg>
